<svg width="20" height="20" viewBox="0 0 20 20" fill="none" xmlns="http://www.w3.org/2000/svg">
<path d="M1.69434 5.09473L6.52944 6.19361C6.69428 6.23537 6.86351 6.26834 7.03274 6.29471C7.16021 6.3079 7.28988 6.3079 7.54701 6.3079H11.3096C13.4546 6.3079 14.5271 6.3079 15.1931 6.96723C15.859 7.62656 15.8524 8.70567 15.8524 10.8507V12.1408C15.8524 14.2858 15.8524 15.3583 15.1931 16.0243C14.5337 16.6902 13.4546 16.6836 11.3096 16.6836H6.24373C4.0987 16.6836 3.02619 16.6836 2.36026 16.0243C1.69434 15.3649 1.70093 14.2858 1.70093 12.1408L1.69434 5.09473Z" fill="white" stroke="#18181A"/>
<path d="M3.73383 9.11133H10.0788" stroke="#18181A" stroke-width="0.8" stroke-linecap="round" stroke-linejoin="round"/>
<path d="M3.73389 11.3457H7.33384" stroke="#18181A" stroke-width="0.8" stroke-linecap="round" stroke-linejoin="round"/>
<path d="M3.73389 13.5737H7.33384" stroke="#18181A" stroke-width="0.8" stroke-linecap="round" stroke-linejoin="round"/>
<path d="M1.69434 4.38936C1.69381 4.13537 1.74309 3.88374 1.83939 3.64871C1.93584 3.41439 2.07776 3.20149 2.25694 3.02231C2.43612 2.84313 2.64901 2.70122 2.88334 2.60477C3.11823 2.50777 3.36985 2.45775 3.62399 2.45752H7.4723C8.81294 2.45752 9.48326 2.45752 9.88985 2.8729C10.2964 3.28828 10.3074 3.9608 10.3074 5.29045V6.30802H3.62399C3.11429 6.30746 2.62547 6.10548 2.26403 5.74609C1.90259 5.38671 1.69782 4.89905 1.69434 4.38936Z" fill="white" stroke="#18181A"/>
<path d="M18.3359 14.1516C18.2625 15.1123 17.8208 16.0075 17.1031 16.6503C16.3853 17.2931 15.447 17.6337 14.484 17.6011C13.5211 17.5685 12.608 17.1651 11.9354 16.4752C11.2627 15.7854 10.8826 14.8623 10.8744 13.8988C10.8718 13.7675 10.877 13.6362 10.8898 13.5054C10.9312 13.0162 11.0702 12.5401 11.2986 12.1055C11.525 11.6689 11.8358 11.2817 12.2131 10.9662C12.5904 10.6508 13.0266 10.4135 13.4964 10.2681C13.9645 10.1192 14.4577 10.0654 14.9469 10.1099C15.2783 10.1402 15.6041 10.2141 15.9161 10.3297C16.6413 10.5994 17.2649 11.0877 17.7007 11.727C18.1365 12.3664 18.363 13.1252 18.3491 13.8988C18.3476 13.9794 18.3432 14.0637 18.3359 14.1516Z" fill="#EDC4AA" stroke="#18181A"/>
<path d="M18.3491 13.8988C17.7597 13.7255 17.1367 13.7002 16.5352 13.8252C15.9337 13.9502 15.3723 14.2215 14.9008 14.6152C14.525 14.931 14.2151 15.3177 13.9889 15.7533C13.7626 16.1888 13.6244 16.6647 13.5821 17.1537C13.5887 17.2407 13.5887 17.3282 13.5821 17.4152C14.1123 17.569 14.6701 17.6033 15.2152 17.5157C15.7603 17.4282 16.2792 17.2209 16.7346 16.9088C17.19 16.5967 17.5706 16.1876 17.849 15.7108C18.1274 15.234 18.2967 14.7015 18.3447 14.1515C18.3425 14.0636 18.3469 13.9779 18.3491 13.8988Z" stroke="#18181A" stroke-width="0.6"/>
<path d="M15.7799 10.32C15.2498 10.1667 14.6923 10.1326 14.1475 10.2204C13.6027 10.3081 13.084 10.5155 12.6289 10.8275C12.1737 11.1396 11.7934 11.5486 11.5151 12.0251C11.2368 12.5017 11.0676 13.034 11.0195 13.5837C11.0195 13.6716 11.0063 13.7574 11.0042 13.8431C11.5342 13.9968 12.0918 14.0312 12.6367 13.9438C13.1817 13.8563 13.7005 13.6492 14.1559 13.3374C14.6113 13.0255 14.9919 12.6167 15.2704 12.1402C15.549 11.6637 15.7184 11.1314 15.7667 10.5816C15.7645 10.4937 15.7799 10.4058 15.7799 10.32Z" stroke="#18181A" stroke-width="0.6"/>
</svg>
